<svg version="1.2" xmlns="http://www.w3.org/2000/svg" viewBox="0 0 2500 637" width="2500" height="637">
	<style>
		.s0 { fill: #213147 } 
		.s1 { fill: #12aaff } 
		.s2 { fill: #9dcced } 
		.s3 { fill: #ffffff } 
	</style>
	<g id="Layer_x0020_1">
		<g id="_2405611885616">
			<g>
				<g>
					<path class="s0" d="m21.7 193.7v249.6c0 15.3 8.9 30.6 21.7 38.2l216.5 124.8c14 7.6 30.6 7.6 44.6 0l216.5-124.8c14-7.6 21.7-22.9 21.7-38.2v-249.6c0-15.3-8.9-30.6-21.7-38.2l-216.6-124.8c-14-7.6-30.6-7.6-44.6 0l-216.5 124.8c-14 7.6-21.6 22.9-21.6 38.2z"/>
					<g>
						<g>
							<g>
								<path class="s1" d="m329.9 366.9l-30.6 84.1c-1.3 2.5-1.3 5.1 0 7.6l53.5 145.2 61.1-35.7-73.9-201.2c-1.2-5.1-7.6-5.1-10.1 0z"/>
							</g>
							<g>
								<path class="s1" d="m391 224.3c-1.3-5.1-7.6-5.1-10.2 0l-30.6 84.1c-1.3 2.5-1.3 5.1 0 7.6l86.6 238.2 61.1-35.7z"/>
							</g>
						</g>
					</g>
					<g>
						<path class="s2" d="m281.5 0.1c-8.9 0-16.6 2.5-24.2 6.4l-234.3 135c-15.3 8.9-24.2 24.2-24.2 42v270c0 16.6 8.9 33.1 24.2 42l234.3 135c7.6 3.8 15.3 6.4 24.2 6.4 8.9 0 16.6-2.5 24.2-6.4l234.3-135c15.3-8.9 24.2-24.2 24.2-42v-270c0-16.6-8.9-33.1-24.2-42l-233.1-135c-7.6-3.8-15.3-6.4-24.2-6.4zm0 39.5c1.3 0 2.5 0 3.8 1.3l234.3 135c2.5 1.3 3.8 3.8 3.8 7.6v270c0 2.5-1.3 6.4-3.8 7.6l-234.3 135c-1.3 1.3-2.5 1.3-3.8 1.3-1.3 0-2.5 0-3.8-1.3l-234.3-135c-2.5-1.3-3.8-3.8-3.8-7.6v-270c0-2.5 1.3-6.4 3.8-7.6l234.3-135c1.2-1.3 2.5-1.3 3.8-1.3z"/>
					</g>
					<path fill-rule="evenodd" class="s0" d="m127.4 554.1l21.6-58.6 43.3 35.7-40.7 38.2z"/>
					<g>
						<path class="s3" d="m262.4 164.4h-59.9c-3.8 0-8.9 2.5-10.2 6.4l-127.3 348.9 61.1 35.7 140.1-383.4c1.3-3.8-1.3-7.6-5.1-7.6z"/>
						<path class="s3" d="m365.5 164.4h-59.9c-3.8 0-8.9 2.5-10.2 6.4l-145.1 397.3 61.1 35.7 157.9-433c1.3-3.8-1.3-7.6-5.1-7.6z"/>
					</g>
				</g>
				<g>
					<g>
						<path class="s0" d="m816.4 237c6.4 0 11.5 1.3 15.3 3.8 3.8 2.5 7.6 7.6 11.5 14l77.7 140.1c1.3 1.3 1.3 2.5 0 3.8 0 1.3-1.3 1.3-3.8 1.3h-29.3c-2.5 0-3.8-1.3-5.1-2.5l-16.7-30.6h-109.5l-16.6 30.6c-1.3 2.5-2.5 2.5-5.1 2.5h-30.6c-2.5 0-3.8 0-3.8-1.3 0-1.3 0-2.5 0-3.8l76.4-140.1c3.8-7.6 7.6-11.5 11.5-14 3.9-2.5 7.6-3.8 12.7-3.8h14zm-45.9 103.2h80.2l-36.9-68.8c-1.3-1.3-1.3-1.3-2.5-1.3h-1.3c-1.3 0-2.5 0-2.5 1.3z"/>
						<path class="s0" d="m1090.2 237c17.8 0 30.6 3.8 38.2 12.7 7.6 7.6 11.5 20.4 11.5 35.7v12.7c0 14-2.5 24.2-7.6 31.8q-7.65 11.4-26.7 15.3l39.5 49.7c1.3 1.3 1.3 2.5 1.3 3.8 0 1.3-1.3 2.5-3.8 2.5h-30.6c-2.5 0-3.8 0-3.8-1.3-1.3 0-1.3-1.3-2.5-2.5l-36.9-48.4h-75.1v47.1c0 3.8-1.3 5.1-5.1 5.1h-25.5c-3.8 0-5.1-1.3-5.1-5.1v-151.5c0-5.1 2.5-7.6 7.6-7.6h126.1zm-96.8 84h89.1c7.6 0 14-1.3 16.6-5.1 3.8-3.8 5.1-8.9 5.1-15.3v-10.2c0-7.6-1.3-12.7-5.1-15.3-3.8-3.8-8.9-5.1-16.6-5.1h-86.6c-2.5 0-2.5 1.3-2.5 2.5z"/>
						<path class="s0" d="m1336 237c16.6 0 28 3.8 34.4 10.2 6.4 6.4 10.2 16.6 10.2 29.3v11.5c0 12.7-5.1 22.9-15.3 29.3 10.2 6.4 16.6 16.6 16.6 30.6v14c0 6.4-1.3 11.5-2.5 16.6-1.2 5.1-3.8 8.9-6.4 12.7-3.8 3.8-7.6 6.4-12.7 7.6-5.1 1.3-11.5 2.5-19.1 2.5h-138.8c-5.1 0-7.6-2.5-7.6-7.6v-149c0-5.1 2.5-7.6 7.6-7.6h135-1.4zm-105.7 67.5h95.5c7.6 0 12.7-1.3 15.3-3.8 2.6-2.5 3.8-5.1 3.8-10.2v-7.6c0-5.1-1.3-8.9-3.8-10.2-2.5-2.5-7.6-3.8-12.7-3.8h-95.5c-2.5 0-2.5 1.3-2.5 2.5v33.1zm0 25.5v34.4c0 2.5 1.3 2.5 2.5 2.5h95.5c6.4 0 10.2-1.3 12.7-3.8 2.5-2.5 3.8-6.4 3.8-10.2v-8.9c0-5.1-1.3-8.9-3.8-11.5-2.5-2.6-7.6-3.8-16.6-3.8h-95.4z"/>
						<path class="s0" d="m1468.4 237c3.8 0 5.1 1.3 5.1 5.1v152.8c0 3.8-1.3 5.1-5.1 5.1h-25.5c-3.8 0-5.1-1.3-5.1-5.1v-152.8c0-3.8 1.3-5.1 5.1-5.1z"/>
						<path class="s0" d="m1714.2 237c3.8 0 5.1 1.3 5.1 5.1v22.9c0 3.8-1.3 5.1-5.1 5.1h-73.9v124.8c0 3.8-1.3 5.1-5.1 5.1h-25.5c-3.8 0-5.1-1.3-5.1-5.1v-124.8h-73.9c-3.8 0-5.1-1.3-5.1-5.1v-22.9c0-3.8 1.3-5.1 5.1-5.1h182.1z"/>
						<path class="s0" d="m1898.9 237c17.8 0 30.6 3.8 38.2 12.7 7.6 7.6 11.5 20.4 11.5 35.7v12.7c0 14-2.5 24.2-7.6 31.8q-7.65 11.4-26.7 15.3l39.5 49.7c1.3 1.3 1.3 2.5 1.3 3.8 0 1.3-1.3 2.5-3.8 2.5h-30.6c-2.5 0-3.8 0-3.8-1.3-1.3 0-1.3-1.3-2.5-2.5l-36.9-48.4h-75.1v47.1c0 3.8-1.3 5.1-5.1 5.1h-25.5c-3.8 0-5.1-1.3-5.1-5.1v-151.5c0-5.1 2.5-7.6 7.6-7.6h126.1zm-96.8 84h89.1c7.6 0 14-1.3 16.6-5.1 3.8-3.8 5.1-8.9 5.1-15.3v-10.2c0-7.6-1.3-12.7-5.1-15.3-3.8-3.8-8.9-5.1-16.6-5.1h-86.6c-2.5 0-2.5 1.3-2.5 2.5z"/>
						<path class="s0" d="m2030.1 237c3.8 0 5.1 1.3 5.1 5.1v93c0 6.4 0 11.5 1.3 15.3 1.3 3.8 2.5 7.6 5.1 10.2 2.6 2.6 5.1 3.8 8.9 5.1 3.8 1.3 8.9 1.3 15.3 1.3h65c6.4 0 11.5 0 15.3-1.3 3.8-1.3 7.6-2.5 8.9-5.1 2.5-2.5 3.8-6.4 5.1-10.2 1.3-3.8 1.3-8.9 1.3-15.3v-93c0-3.8 1.3-5.1 5.1-5.1h25.5c3.8 0 5.1 1.3 5.1 5.1v96.8c0 11.5-1.3 20.4-3.8 28-2.5 7.6-6.4 14-11.5 19.1-5.1 5.1-11.5 8.9-20.4 10.2-8.9 2.5-17.8 3.8-30.6 3.8h-67.5c-11.5 0-21.7-1.3-30.6-3.8-7.6-2.5-15.3-6.4-20.4-10.2-5.1-5.1-8.9-11.5-11.5-19.1-2.5-7.6-3.8-17.8-3.8-28v-96.8c0-3.8 1.3-5.1 5.1-5.1h25.5z"/>
						<path class="s0" d="m2297.5 237c3.8 0 6.4 0 8.9 1.3 2.5 0 5.1 1.3 6.4 2.5 1.3 1.3 3.8 2.5 5.1 5.1 1.3 2.5 2.5 5.1 5.1 8.9l48.4 112.1c1.3 1.3 1.3 2.5 3.8 2.5h2.5c1.3 0 2.5-1.3 3.8-2.5l48.4-112.1c1.3-3.8 2.5-6.4 5.1-8.9 1.3-2.5 2.5-3.8 5.1-5.1 1.3-1.3 3.8-2.5 6.4-2.5 2.6 0 5.1-1.3 8.9-1.3h25.5c7.6 0 14 1.3 16.6 5.1 2.5 3.8 3.8 10.2 3.8 19.1v133.7c0 3.8-1.3 5.1-5.1 5.1h-24.2c-3.8 0-5.1-1.3-5.1-5.1v-122.2c0-1.3-1.3-2.5-1.3-2.5h-2.5c-1.3 0-2.5 1.3-2.5 1.3l-47.1 104.4c-1.3 3.8-3.8 7.6-6.4 10.2-2.6 2.6-3.8 5.1-6.4 7.6-2.5 1.3-5.1 3.8-7.6 3.8-2.5 1.3-6.4 1.3-10.2 1.3h-11.5c-3.8 0-7.6 0-10.2-1.3-2.6-1.3-5.1-2.5-7.6-3.8-2.5-1.3-3.8-3.8-6.4-7.6-2.5-2.5-3.8-6.4-6.4-10.2l-47.1-104.4c0-1.3-1.3-1.3-2.5-1.3h-2.5c-1.3 0-1.3 1.3-1.3 2.5v122.3c0 3.8-1.3 5.1-5.1 5.1h-24.3c-3.8 0-5.1-1.3-5.1-5.1v-133.8c0-8.9 1.3-15.3 3.8-19.1 2.5-3.8 8.9-5.1 16.6-5.1h25.5z"/>
					</g>
				</g>
			</g>
		</g>
	</g>
</svg>