<svg version="1.2" xmlns="http://www.w3.org/2000/svg" viewBox="0 0 241 112" width="241" height="112">
	<defs>
		<clipPath clipPathUnits="userSpaceOnUse" id="cp1">
			<path d="m0 0h241v112h-241z"/>
		</clipPath>
		<clipPath clipPathUnits="userSpaceOnUse" id="cp2">
			<path d="m241 0h-241v112h241z"/>
		</clipPath>
	</defs>
	<style>
		.s0 { fill: #ffffff } 
	</style>
	<g id="Clip-Path" clip-path="url(#cp1)">
		<g>
			<g id="Clip-Path" clip-path="url(#cp2)">
				<g>
					<path class="s0" d="m25.6 103.71v-0.08c0-4.06-2.15-6.09-5.64-7.43 2.16-1.21 3.96-3.11 3.96-6.52v-0.08c0-4.75-3.78-7.82-9.94-7.82h-13.98v30.22h14.33c6.8 0 11.27-2.76 11.27-8.29zm-8.26-12.9c0 2.24-1.85 3.19-4.78 3.19h-6.11v-6.39h6.54c2.8 0 4.35 1.12 4.35 3.11zm1.68 12.09c0 2.24-1.77 3.28-4.69 3.28h-7.88v-6.65h7.66c3.4 0 4.91 1.25 4.91 3.28z"/>
					<path class="s0" d="m57.82 112v-30.22h-6.54v18.61l-14.12-18.61h-6.11v30.22h6.54v-19.21l14.59 19.21z"/>
					<path class="s0" d="m90.65 103.71v-0.08c0-4.06-2.15-6.09-5.64-7.43 2.15-1.21 3.96-3.11 3.96-6.52v-0.08c0-4.75-3.79-7.82-9.94-7.82h-13.98v30.22h14.32c6.8 0 11.28-2.76 11.28-8.29zm-8.26-12.9c0 2.24-1.85 3.19-4.78 3.19h-6.11v-6.39h6.54c2.8 0 4.35 1.12 4.35 3.11zm1.67 12.09c0 2.24-1.76 3.28-4.69 3.28h-7.87v-6.65h7.66c3.4 0 4.9 1.25 4.9 3.28z"/>
					<path class="s0" d="m128.28 106.28l-3.4-3.42c-2.59 2.4-4.96 3.9-8.66 3.9-5.77 0-9.94-4.8-9.94-10.72 0-5.91 4.17-10.62 9.94-10.62 3.45 0 6.03 1.5 8.44 3.73l3.4-3.9c-2.88-2.75-6.24-4.67-11.79-4.67-9.13 0-15.55 6.98-15.55 15.55 0 8.65 6.54 15.47 15.33 15.47 5.64 0 9.09-2.06 12.23-5.32z"/>
					<path class="s0" d="m153.53 98.44v12.64h5.29v-29.99h-5.29v12.47h-14.39v-12.47h-5.29v29.99h5.29v-12.64z"/>
					<path class="s0" d="m182.15 80.88h-4.91l-13.26 30.2h5.42l3.11-7.24h14.25l3.06 7.24h5.59zm2.67 18.3h-10.37l5.16-12z"/>
					<path class="s0" d="m200.88 81.09v29.99h5.3v-29.99z"/>
					<path class="s0" d="m235.31 101.83l-16.15-20.74h-4.91v29.99h5.21v-21.33l16.62 21.33h4.44v-29.99h-5.21z"/>
					<path class="s0" d="m104.19 9.33l16.09-9.33 16.1 9.33-5.92 3.45-10.18-5.88-10.17 5.88zm32.18 11.77l-5.91-3.45-10.18 5.89-10.18-5.89-5.91 3.45v6.89l10.17 5.89v11.77l5.92 3.44 5.92-3.44v-11.77l10.17-5.89zm4.2 21.1l-10.17 5.89v6.89l16.09-9.33v-18.66l-5.92 3.45zm-4.2-2.44v-6.9l-5.91 3.45v6.9zm-1.72-24.55l5.91 3.45v6.89l5.92-3.45v-6.89l-5.92-3.45zm-20.29 35.37v6.89l5.92 3.45 5.91-3.45v-6.89l-5.91 3.44zm-14.38-20.15l-5.91-3.44v18.66l16.09 9.33v-6.89l-10.18-5.89zm14.38-15.21l5.92 3.44 5.91-3.44-5.91-3.45zm-14.38 3.45l5.92-3.45-5.92-3.45-5.92 3.45v6.89l5.92 3.45zm4.2 21.1l5.92 3.45v-6.89l-5.92-3.45z"/>
				</g>
			</g>
		</g>
	</g>
</svg>