<svg version="1.2" xmlns="http://www.w3.org/2000/svg" viewBox="0 0 961 659" width="961" height="659">
	<style>
		.s0 { fill: #3b3b3b;stroke: #ffffff;paint-order:stroke fill markers;stroke-linejoin: round;stroke-width: 10 } 
		.s1 { opacity: .6;fill: #000000 } 
		.s2 { opacity: .45;fill: #000000 } 
		.s3 { opacity: .8;fill: #000000 } 
	</style>
	<filter id="f0">
		<feFlood flood-color="#ffffff" flood-opacity="1" />
		<feBlend mode="normal" in2="SourceGraphic"/>
		<feComposite in2="SourceAlpha" operator="in" />
	</filter>
	<g id="Layer_2" filter="url(#f0)">
		<g id="Layer_1-2">
			<path fill-rule="evenodd" class="s0" d="m154.38 566.92q-0.01 0.63-0.26 1.21-0.26 0.58-0.71 1.03-0.45 0.44-1.04 0.67-0.59 0.24-1.22 0.24h-62.01c1.57 15.31 13.08 29.31 29.31 29.31 11.09 0 19.29-4.23 25.5-13.08q0.29-0.5 0.74-0.86 0.46-0.36 1.01-0.53 0.55-0.17 1.12-0.14 0.58 0.04 1.1 0.28 0.34 0.15 0.63 0.38 0.29 0.23 0.52 0.52 0.23 0.3 0.38 0.63 0.15 0.34 0.21 0.71 0.06 0.28 0.06 0.56 0 0.28-0.05 0.56-0.06 0.27-0.16 0.53-0.11 0.26-0.26 0.5c-6.21 10.85-18.63 16.23-30.88 16.23-20.87 0-35.77-18.63-35.77-38.67 0-20.03 14.9-38.66 35.77-38.66 20.86 0 36.01 18.63 36.01 38.58zm-6.62-3.06c-1.33-15.32-13.08-29.31-29.31-29.31-16.23 0-27.74 13.99-29.31 29.31zm81.88-33.95q0.62 0.02 1.19 0.27 0.57 0.25 1.01 0.68 0.43 0.44 0.68 1.01 0.25 0.57 0.27 1.19 0.01 0.63-0.23 1.21-0.23 0.58-0.68 1.03-0.44 0.44-1.03 0.68-0.58 0.23-1.21 0.22h-16.64v65.25q-0.01 0.62-0.25 1.19-0.25 0.58-0.68 1.02-0.45 0.44-1.02 0.68-0.57 0.24-1.2 0.25-0.61-0.02-1.18-0.26-0.57-0.25-1.01-0.69-0.44-0.44-0.68-1.01-0.25-0.56-0.27-1.18v-65.25h-15.98q-0.63 0.01-1.21-0.22-0.58-0.24-1.03-0.68-0.44-0.45-0.68-1.03-0.24-0.58-0.23-1.21 0.01-0.62 0.26-1.2 0.24-0.57 0.68-1.01 0.44-0.44 1.01-0.69 0.58-0.24 1.2-0.25h15.98v-23.92q-0.02-0.55 0.16-1.08 0.17-0.52 0.51-0.95 0.34-0.43 0.81-0.72 0.46-0.29 1-0.4 0.69-0.15 1.38 0.02 0.68 0.17 1.22 0.61 0.55 0.45 0.84 1.09 0.3 0.64 0.29 1.34v24.01zm101.5 31.55v39.49q-0.02 0.62-0.26 1.19-0.25 0.57-0.69 1-0.44 0.44-1.01 0.69-0.56 0.24-1.18 0.27-0.63 0-1.21-0.23-0.59-0.24-1.03-0.68-0.45-0.45-0.68-1.03-0.24-0.58-0.23-1.21v-39.49c0-13.33-7.53-26.66-22.44-26.66-19.12 0-27.32 16.64-26.16 33.78 0 0.41 0.25 2.4 0.25 2.65v29.64q0.01 0.55-0.16 1.07-0.17 0.52-0.51 0.95-0.34 0.43-0.81 0.72-0.47 0.29-1 0.4-0.69 0.15-1.38-0.02-0.68-0.16-1.23-0.61-0.54-0.45-0.84-1.09-0.29-0.64-0.28-1.34v-129.9q0.01-0.63 0.25-1.2 0.25-0.57 0.69-1.01 0.44-0.44 1.01-0.69 0.57-0.24 1.2-0.25 0.62 0.02 1.18 0.27 0.57 0.24 1.01 0.68 0.44 0.44 0.69 1.01 0.24 0.57 0.26 1.19v73.52c5.3-9.52 14.9-15.98 26-15.98 18.13 0 28.56 15.98 28.56 32.87zm111.2 5.46q-0.02 0.63-0.27 1.21-0.25 0.58-0.7 1.03-0.46 0.44-1.04 0.67-0.59 0.24-1.22 0.24h-62.02c1.58 15.31 13.09 29.31 29.31 29.31 11.1 0 19.29-4.23 25.5-13.08q0.3-0.5 0.75-0.86 0.45-0.36 1-0.53 0.55-0.17 1.13-0.14 0.57 0.04 1.1 0.28 0.34 0.15 0.63 0.38 0.29 0.23 0.52 0.52 0.22 0.3 0.37 0.63 0.15 0.34 0.22 0.71 0.05 0.28 0.05 0.56 0 0.28-0.05 0.56-0.05 0.27-0.16 0.53-0.1 0.26-0.26 0.5c-6.21 10.85-18.63 16.23-30.88 16.23-20.86 0-35.77-18.63-35.77-38.67 0-20.03 14.91-38.66 35.77-38.66 20.86 0 36.02 18.63 36.02 38.58zm-6.63-3.06c-1.32-15.32-13.08-29.31-29.31-29.31-16.22 0-27.73 13.99-29.31 29.31zm82.8-31.05q0.06 0.62-0.12 1.22-0.19 0.6-0.6 1.07-0.42 0.47-0.99 0.74-0.56 0.27-1.19 0.28c-18.22 2.65-26.41 17.55-26.41 34.86v29.64q0.01 0.55-0.16 1.07-0.17 0.52-0.51 0.95-0.34 0.43-0.81 0.72-0.47 0.29-1.01 0.4-0.68 0.15-1.37-0.01-0.68-0.17-1.23-0.62-0.54-0.45-0.84-1.08-0.29-0.64-0.28-1.35v-67.64q-0.02-0.55 0.16-1.07 0.17-0.52 0.51-0.96 0.34-0.43 0.81-0.72 0.46-0.28 1-0.4 0.69-0.14 1.38 0.02 0.68 0.17 1.22 0.61 0.55 0.45 0.84 1.09 0.3 0.64 0.29 1.35v13.74c5.13-8.69 15.32-16.89 26-16.89 1.49 0.08 3.31 1.16 3.31 2.98zm101.92 34.11q-0.02 0.63-0.27 1.21-0.25 0.58-0.7 1.03-0.46 0.44-1.04 0.67-0.59 0.24-1.22 0.24h-62.01c1.57 15.31 13.08 29.31 29.3 29.31 11.1 0 19.29-4.23 25.5-13.08q0.3-0.5 0.75-0.86 0.45-0.36 1-0.53 0.55-0.17 1.13-0.14 0.57 0.04 1.1 0.28 0.34 0.15 0.63 0.38 0.29 0.23 0.52 0.52 0.23 0.3 0.37 0.63 0.15 0.34 0.22 0.71 0.05 0.28 0.05 0.56 0 0.28-0.05 0.56-0.05 0.27-0.16 0.53-0.1 0.26-0.26 0.5c-6.21 10.85-18.63 16.23-30.88 16.23-20.86 0-35.77-18.63-35.77-38.67 0-20.03 14.91-38.66 35.77-38.66 20.87 0 35.93 18.63 36.02 38.58zm-6.71-3.06c-1.32-15.32-13.08-29.31-29.31-29.31-16.23 0-27.73 13.99-29.31 29.31zm106.81-30.3v67.8q-0.02 0.62-0.27 1.19-0.25 0.57-0.69 1.01-0.43 0.44-1 0.68-0.57 0.25-1.19 0.27-0.63 0.01-1.21-0.23-0.58-0.23-1.03-0.68-0.44-0.44-0.68-1.02-0.24-0.59-0.23-1.22v-12.91c-5.13 10.18-14.24 17.55-25.74 17.55-18.47 0-28.65-15.98-28.65-32.87v-39.74c0-0.83 0.33-1.63 0.92-2.22 0.59-0.59 1.39-0.93 2.22-0.93 0.84 0 1.64 0.34 2.23 0.93 0.59 0.59 0.92 1.39 0.92 2.22v39.74c0 13.33 7.53 26.66 22.44 26.66 20.86 0 25.75-19.54 25.75-41.07v-25.33q0-0.73 0.33-1.38 0.33-0.66 0.92-1.1 0.58-0.43 1.3-0.57 0.72-0.13 1.42 0.07 0.5 0.16 0.92 0.46 0.42 0.31 0.73 0.74 0.3 0.42 0.45 0.92 0.15 0.5 0.14 1.03zm156.97 27.65v39.74q-0.02 0.62-0.26 1.19-0.25 0.57-0.69 1-0.44 0.44-1 0.69-0.57 0.24-1.19 0.27-0.63 0-1.21-0.23-0.59-0.24-1.03-0.68-0.45-0.45-0.68-1.03-0.24-0.58-0.23-1.21v-39.74c0-13.33-7.53-26.41-22.44-26.41-18.62 0-25.75 19.95-25.75 35.52v30.63q-0.02 0.62-0.26 1.19-0.25 0.57-0.69 1-0.44 0.44-1 0.69-0.57 0.24-1.19 0.27-0.63 0-1.21-0.23-0.59-0.24-1.03-0.68-0.44-0.45-0.68-1.03-0.24-0.58-0.23-1.21v-39.74c0-13.33-7.53-26.41-22.43-26.41-18.88 0-26.66 14.9-26 34.61 0 0.41 0.25 1.32 0 1.57v29.89q0.01 0.55-0.16 1.07-0.17 0.52-0.51 0.95-0.34 0.43-0.81 0.72-0.47 0.29-1.01 0.4-0.68 0.15-1.37-0.02-0.68-0.16-1.23-0.61-0.54-0.45-0.84-1.09-0.29-0.64-0.28-1.34v-67.89q-0.02-0.55 0.16-1.07 0.17-0.52 0.51-0.96 0.34-0.43 0.81-0.72 0.46-0.28 1-0.4 0.69-0.14 1.38 0.02 0.68 0.17 1.22 0.61 0.55 0.45 0.84 1.09 0.3 0.64 0.29 1.35v11.34c5.3-9.52 14.9-15.73 26-15.73 12.66 0 22.43 8.03 26.41 19.79 5.13-11.51 15.07-19.79 27.98-19.79 18.38 0 28.81 15.73 28.81 32.62z"/>
			<path class="s1" d="m480.1 150.9l-125.2 56.9 125.2 74.1 125.3-74.1z"/>
			<path class="s2" d="m354.9 207.8l125.2 74.1v-281.9z"/>
			<path class="s3" d="m480.1 0v281.9l125.2-74.1z"/>
			<path class="s2" d="m354.9 231.6l125.2 176.4v-102.4z"/>
			<path class="s3" d="m480.1 305.6v102.4l125.3-176.4z"/>
		</g>
	</g>
</svg>