<svg version="1.2" xmlns="http://www.w3.org/2000/svg" viewBox="0 0 961 659" width="961" height="659">
	<style>
		.s0 { fill: #3b3b3b } 
		.s1 { opacity: .6;fill: #000000 } 
		.s2 { opacity: .45;fill: #000000 } 
		.s3 { opacity: .8;fill: #000000 } 
	</style>
	<filter id="f0">
		<feFlood flood-color="#ffffff" flood-opacity="1" />
		<feBlend mode="normal" in2="SourceGraphic"/>
		<feComposite in2="SourceAlpha" operator="in" />
	</filter>
	<g id="Layer_2" filter="url(#f0)">
		<g id="Layer_1-2">
			<path class="s0" d="m86.7 611.5q-0.02 0.76-0.32 1.46-0.31 0.7-0.85 1.24-0.55 0.53-1.26 0.82-0.71 0.28-1.47 0.28h-74.9c1.9 18.5 15.8 35.4 35.4 35.4 13.4 0 23.3-5.1 30.8-15.8q0.35-0.6 0.9-1.04 0.55-0.43 1.21-0.64 0.67-0.2 1.36-0.16 0.7 0.05 1.33 0.34 0.41 0.18 0.76 0.46 0.35 0.27 0.63 0.63 0.27 0.35 0.45 0.76 0.18 0.41 0.26 0.85 0.07 0.33 0.07 0.67 0 0.34-0.07 0.68-0.06 0.33-0.19 0.65-0.12 0.31-0.31 0.6c-7.5 13.1-22.5 19.6-37.3 19.6-25.2 0-43.2-22.5-43.2-46.7 0-24.2 18-46.7 43.2-46.7 25.2 0 43.5 22.5 43.5 46.6zm-8-3.7c-1.6-18.5-15.8-35.4-35.4-35.4-19.6 0-33.5 16.9-35.4 35.4z"/>
			<path class="s0" d="m177.6 566.8q0.75 0.03 1.43 0.32 0.69 0.3 1.22 0.83 0.53 0.53 0.83 1.22 0.29 0.68 0.32 1.43 0.01 0.76-0.27 1.46-0.29 0.71-0.82 1.25-0.54 0.53-1.25 0.82-0.7 0.28-1.46 0.27h-20.1v78.8q-0.01 0.75-0.3 1.45-0.3 0.69-0.83 1.22-0.53 0.53-1.22 0.83-0.7 0.29-1.45 0.3-0.75-0.03-1.43-0.32-0.69-0.3-1.22-0.83-0.53-0.53-0.83-1.22-0.29-0.68-0.32-1.43v-78.8h-19.3q-0.76 0.01-1.46-0.27-0.71-0.29-1.25-0.82-0.53-0.54-0.82-1.25-0.28-0.7-0.27-1.46 0.01-0.75 0.3-1.45 0.3-0.69 0.83-1.22 0.53-0.53 1.22-0.83 0.7-0.29 1.45-0.3h19.3v-28.9q-0.02-0.66 0.19-1.29 0.21-0.63 0.62-1.16 0.41-0.52 0.98-0.87 0.56-0.34 1.21-0.48 0.83-0.18 1.66 0.02 0.82 0.21 1.48 0.74 0.66 0.55 1.02 1.32 0.35 0.77 0.34 1.62v29z"/>
			<path class="s0" d="m300.2 604.9v47.7q-0.03 0.75-0.32 1.43-0.3 0.69-0.83 1.22-0.53 0.53-1.22 0.83-0.68 0.29-1.43 0.32-0.76 0.01-1.46-0.27-0.71-0.29-1.25-0.82-0.53-0.54-0.82-1.25-0.28-0.7-0.27-1.46v-47.7c0-16.1-9.1-32.2-27.1-32.2-23.1 0-33 20.1-31.6 40.8 0 0.5 0.3 2.9 0.3 3.2v35.8q0.02 0.66-0.19 1.29-0.21 0.63-0.62 1.16-0.41 0.52-0.98 0.87-0.56 0.34-1.21 0.48-0.83 0.18-1.66-0.02-0.82-0.21-1.48-0.74-0.66-0.55-1.02-1.32-0.35-0.77-0.34-1.62v-156.9q0.01-0.75 0.3-1.45 0.3-0.69 0.83-1.22 0.53-0.53 1.22-0.83 0.7-0.29 1.45-0.3 0.75 0.03 1.43 0.32 0.69 0.3 1.22 0.83 0.53 0.53 0.83 1.22 0.29 0.68 0.32 1.43v88.8c6.4-11.5 18-19.3 31.4-19.3 21.9 0 34.5 19.3 34.5 39.7z"/>
			<path class="s0" d="m434.5 611.5q-0.02 0.76-0.32 1.46-0.31 0.7-0.85 1.24-0.55 0.53-1.26 0.82-0.71 0.28-1.47 0.28h-74.9c1.9 18.5 15.8 35.4 35.4 35.4 13.4 0 23.3-5.1 30.8-15.8q0.35-0.6 0.9-1.04 0.55-0.43 1.21-0.64 0.67-0.2 1.36-0.16 0.7 0.05 1.33 0.34 0.41 0.18 0.76 0.46 0.35 0.27 0.63 0.63 0.27 0.35 0.45 0.76 0.18 0.41 0.26 0.85 0.07 0.33 0.07 0.67 0 0.34-0.07 0.68-0.06 0.33-0.19 0.65-0.12 0.31-0.31 0.6c-7.5 13.1-22.5 19.6-37.3 19.6-25.2 0-43.2-22.5-43.2-46.7 0-24.2 18-46.7 43.2-46.7 25.2 0 43.5 22.5 43.5 46.6zm-8-3.7c-1.6-18.5-15.8-35.4-35.4-35.4-19.6 0-33.5 16.9-35.4 35.4z"/>
			<path class="s0" d="m526.5 570.3q0.08 0.75-0.15 1.48-0.22 0.72-0.72 1.29-0.5 0.57-1.19 0.89-0.68 0.32-1.44 0.34c-22 3.2-31.9 21.2-31.9 42.1v35.8q0.02 0.66-0.19 1.29-0.21 0.63-0.62 1.16-0.41 0.52-0.98 0.87-0.56 0.34-1.21 0.48-0.83 0.18-1.66-0.02-0.82-0.21-1.48-0.74-0.66-0.55-1.02-1.32-0.35-0.77-0.34-1.62v-81.7q-0.02-0.66 0.19-1.29 0.21-0.63 0.62-1.16 0.41-0.52 0.98-0.87 0.56-0.34 1.21-0.48 0.83-0.18 1.66 0.02 0.82 0.21 1.48 0.74 0.66 0.55 1.02 1.32 0.35 0.77 0.34 1.62v16.6c6.2-10.5 18.5-20.4 31.4-20.4 1.8 0.1 4 1.4 4 3.6z"/>
			<path class="s0" d="m649.6 611.5q-0.02 0.76-0.32 1.46-0.31 0.7-0.85 1.24-0.55 0.53-1.26 0.82-0.71 0.28-1.47 0.28h-74.9c1.9 18.5 15.8 35.4 35.4 35.4 13.4 0 23.3-5.1 30.8-15.8q0.35-0.6 0.9-1.04 0.55-0.43 1.21-0.64 0.67-0.2 1.36-0.16 0.7 0.05 1.33 0.34 0.41 0.18 0.76 0.46 0.35 0.27 0.63 0.63 0.27 0.35 0.45 0.76 0.18 0.41 0.26 0.85 0.07 0.33 0.07 0.67 0 0.34-0.07 0.68-0.06 0.33-0.19 0.65-0.12 0.31-0.31 0.6c-7.5 13.1-22.5 19.6-37.3 19.6-25.2 0-43.2-22.5-43.2-46.7 0-24.2 18-46.7 43.2-46.7 25.2 0 43.4 22.5 43.5 46.6zm-8.1-3.7c-1.6-18.5-15.8-35.4-35.4-35.4-19.6 0-33.5 16.9-35.4 35.4z"/>
			<path class="s0" d="m770.5 571.2v81.9q-0.03 0.75-0.32 1.43-0.3 0.69-0.83 1.22-0.53 0.53-1.22 0.83-0.68 0.29-1.43 0.32-0.76 0.01-1.46-0.27-0.71-0.29-1.25-0.82-0.53-0.54-0.82-1.25-0.28-0.7-0.27-1.46v-15.6c-6.2 12.3-17.2 21.2-31.1 21.2-22.3 0-34.6-19.3-34.6-39.7v-48c0-1.01 0.4-1.97 1.11-2.69 0.72-0.71 1.68-1.11 2.69-1.11 1.01 0 1.97 0.4 2.69 1.11 0.71 0.72 1.11 1.68 1.11 2.69v48c0 16.1 9.1 32.2 27.1 32.2 25.2 0 31.1-23.6 31.1-49.6v-30.6q0.01-0.88 0.4-1.67 0.4-0.79 1.11-1.32 0.71-0.53 1.57-0.69 0.87-0.16 1.72 0.08 0.6 0.19 1.11 0.56 0.51 0.37 0.88 0.89 0.36 0.51 0.54 1.12 0.19 0.6 0.17 1.23z"/>
			<path class="s0" d="m960.1 604.6v48q-0.03 0.75-0.32 1.43-0.3 0.69-0.83 1.22-0.53 0.53-1.22 0.83-0.68 0.29-1.43 0.32-0.76 0.01-1.46-0.27-0.71-0.29-1.25-0.82-0.53-0.54-0.82-1.25-0.28-0.7-0.27-1.46v-48c0-16.1-9.1-31.9-27.1-31.9-22.5 0-31.1 24.1-31.1 42.9v37q-0.03 0.75-0.32 1.43-0.3 0.69-0.83 1.22-0.53 0.53-1.22 0.83-0.68 0.29-1.43 0.32-0.76 0.01-1.46-0.27-0.71-0.29-1.25-0.82-0.53-0.54-0.82-1.25-0.28-0.7-0.27-1.46v-48c0-16.1-9.1-31.9-27.1-31.9-22.8 0-32.2 18-31.4 41.8 0 0.5 0.3 1.6 0 1.9v36.1q0.02 0.66-0.19 1.29-0.21 0.63-0.62 1.16-0.41 0.52-0.98 0.87-0.56 0.34-1.21 0.48-0.83 0.18-1.66-0.02-0.82-0.21-1.48-0.74-0.66-0.55-1.02-1.32-0.35-0.77-0.34-1.62v-82q-0.02-0.66 0.19-1.29 0.21-0.63 0.62-1.16 0.41-0.52 0.98-0.87 0.56-0.34 1.21-0.48 0.83-0.18 1.66 0.02 0.82 0.21 1.48 0.74 0.66 0.55 1.02 1.32 0.35 0.77 0.34 1.62v13.7c6.4-11.5 18-19 31.4-19 15.3 0 27.1 9.7 31.9 23.9 6.2-13.9 18.2-23.9 33.8-23.9 22.2 0 34.8 19 34.8 39.4z"/>
			<path class="s1" d="m480.1 150.9l-125.2 56.9 125.2 74.1 125.3-74.1z"/>
			<path class="s2" d="m354.9 207.8l125.2 74.1v-281.9z"/>
			<path class="s3" d="m480.1 0v281.9l125.2-74.1z"/>
			<path class="s2" d="m354.9 231.6l125.2 176.4v-102.4z"/>
			<path class="s3" d="m480.1 305.6v102.4l125.3-176.4z"/>
		</g>
	</g>
</svg>