<svg version="1.2" xmlns="http://www.w3.org/2000/svg" viewBox="0 0 297 82" width="297" height="82">
	<style>
		.s0 { fill: #ffffff } 
	</style>
	<g>
		<path class="s0" d="m112.8 22.4c-5.5 0-9.8 3.2-9.8 7.8 0 4.6 3.6 6.1 8.1 7l5.7 0.9c7.5 1.2 12.7 4.7 12.7 12.9 0 8.6-7 13.6-16 13.6-8.1 0-15.7-4.8-16.8-14.1-0.1-0.8 0.5-1.5 1.3-1.5h3.4c0.6 0 1.2 0.5 1.3 1.1 0.7 6.6 5.8 9.2 10.8 9.2 5.5 0 9.8-2.7 9.8-8.2 0-4.9-3.5-6.6-8.1-7.5l-5.6-1c-7.8-1.3-12.7-5.1-12.7-12.2 0-8.3 7.2-13.4 15.9-13.4 6.9 0 14.6 3.9 16.1 13.2 0.1 0.8-0.5 1.5-1.3 1.5h-3.6c-0.6 0-1.2-0.5-1.3-1.1-1-5.9-5.5-8.2-9.9-8.2z"/>
		<path class="s0" d="m151.9 27.5c8.4 0 14.3 4.5 16.4 11.8 0.2 0.8-0.4 1.7-1.3 1.7h-3.9c-0.6 0-1-0.4-1.2-0.9-1.5-4.2-4.8-6.5-10-6.5-7 0-10.9 5.7-10.9 12.6 0 6.8 3.9 12.6 10.9 12.6 5.1 0 8.5-2.4 10-6.5 0.2-0.5 0.7-0.9 1.2-0.9h3.9c0.9 0 1.5 0.8 1.2 1.7-2.2 7.6-8 11.8-16.4 11.8-10.8 0-17.6-8.3-17.6-18.6 0.1-10.4 7-18.8 17.7-18.8z"/>
		<path class="s0" d="m174.7 58.7h8.4v-23.5h-7.5c-0.7 0-1.3-0.6-1.3-1.3v-3.3c0-0.7 0.6-1.3 1.3-1.3h10.2c2.1 0 3.9 1.8 3.9 3.9v0.9c1.9-4.5 5.9-5.6 12.1-5.6 2.4 0 4 0.4 4.9 0.7 0.5 0.2 0.8 0.7 0.8 1.2v3.6c0 0.9-0.8 1.5-1.7 1.2-1.1-0.4-2.7-0.7-4.7-0.7-6.6 0-11.3 4.5-11.3 12.4v11.8h10.8c0.7 0 1.3 0.6 1.3 1.3v3.3c0 0.7-0.6 1.3-1.3 1.3h-25.9c-0.7 0-1.3-0.6-1.3-1.3v-3.3c0-0.7 0.6-1.3 1.3-1.3z"/>
		<path class="s0" d="m212.5 46c0-10.2 6.8-18.6 17.8-18.6 11 0 17.8 8.3 17.8 18.6 0 10.2-6.8 18.6-17.8 18.6-11.1 0-17.8-8.3-17.8-18.6zm17.7 12.6c7.1 0 11.1-5.7 11.1-12.6 0-6.8-4.1-12.6-11.1-12.6-7.1 0-11.1 5.7-11.1 12.6 0 6.9 4.1 12.6 11.1 12.6z"/>
		<path class="s0" d="m262.7 59h10.2c0.7 0 1.3 0.6 1.3 1.3v3.1c0 0.7-0.6 1.3-1.3 1.3h-15.2c-0.7 0-1.3-0.6-1.3-1.3v-40.2h-5.1c-0.7 0-1.3-0.6-1.3-1.3v-3.1c0-0.7 0.6-1.3 1.3-1.3h7.5c2.1 0 3.9 1.8 3.9 3.9z"/>
		<path class="s0" d="m285.2 59h10.2c0.7 0 1.3 0.6 1.3 1.3v3.1c0 0.7-0.6 1.3-1.3 1.3h-15.2c-0.7 0-1.3-0.6-1.3-1.3v-40.2h-5.1c-0.7 0-1.3-0.6-1.3-1.3v-3.1c0-0.7 0.6-1.3 1.3-1.3h7.5c2.1 0 3.9 1.8 3.9 3.9z"/>
		<path class="s0" d="m10.3 31.3c-3.2-3-5.4-6.9-5.4-11.5v-0.5c0.3-7.8 6.7-14.2 14.5-14.4h49.9c1.3 0.1 2.3 1 2.3 2.3v42.3c1.1 0.2 1.7 0.4 2.8 0.7 0.9 0.3 2.1 1 2.1 1v-44c-0.1-4-3.3-7.2-7.3-7.2h-49.8c-10.8 0.2-19.4 9-19.4 19.8 0 6.3 2.9 11.7 7.5 15.4 0.3 0.3 0.6 0.6 1.5 0.6 1.5 0 2.5-1.2 2.4-2.4 0-1.1-0.4-1.5-1.1-2.1z"/>
		<path class="s0" d="m68 52.3h-39.1c-2.6 0-4.7 2.1-4.7 4.8v5.6c0.1 2.6 2.3 4.8 4.9 4.8h2.9v-4.8h-2.9v-5.5c0 0 0.7 0 1.6 0 4.9 0 8.6 4.6 8.6 9.5 0 4.4-4 9.9-10.6 9.5-5.9-0.4-9.1-5.6-9.1-9.5v-47.7c0-2.1-1.8-3.9-3.9-3.9h-3.9v4.9h2.9v46.8c-0.2 9.5 6.8 14.3 14 14.3l39.4 0.1c7.9 0 14.4-6.4 14.4-14.4-0.1-8.1-6.5-14.5-14.5-14.5zm9.5 14.7c-0.2 5.1-4.4 9.2-9.5 9.2l-27.4-0.1c2.2-2.5 3.5-5.8 3.5-9.4 0-5.6-3.3-9.5-3.3-9.5h27.3c5.2 0 9.5 4.3 9.5 9.5z"/>
		<path class="s0" d="m57.5 20.8h-29.5v-4.9h29.5c1.3 0 2.4 1.1 2.4 2.4 0 1.4-1 2.5-2.4 2.5z"/>
		<path class="s0" d="m57.5 43.8h-29.5v-4.9h29.5c1.3 0 2.4 1.1 2.4 2.4 0 1.4-1 2.5-2.4 2.5z"/>
		<path class="s0" d="m62.7 32.3h-34.7v-4.9h34.7c1.3 0 2.4 1.1 2.4 2.4 0 1.4-1.1 2.5-2.4 2.5z"/>
	</g>
</svg>