<svg version="1.2" xmlns="http://www.w3.org/2000/svg" viewBox="0 0 646 96" width="646" height="96">
	<defs>
		<clipPath clipPathUnits="userSpaceOnUse" id="cp1">
			<path d="m0 0h646v96h-646z"/>
		</clipPath>
		<linearGradient id="g1" x2="1" gradientUnits="userSpaceOnUse" gradientTransform="matrix(88.08,-99.3,81.644,72.419,10.81,98.29)">
			<stop offset=".08" stop-color="#9945ff"/>
			<stop offset=".3" stop-color="#8752f3"/>
			<stop offset=".5" stop-color="#5497d5"/>
			<stop offset=".6" stop-color="#43b4ca"/>
			<stop offset=".72" stop-color="#28e0b9"/>
			<stop offset=".97" stop-color="#19fb9b"/>
		</linearGradient>
	</defs>
	<style>
		.s0 { fill: url(#g1) } 
		.s1 { fill: #ffffff } 
	</style>
	<filter id="f0">
		<feFlood flood-color="#ffffff" flood-opacity="1" />
		<feBlend mode="normal" in2="SourceGraphic"/>
		<feComposite in2="SourceAlpha" operator="in" />
	</filter>
	<g id="Clip-Path" clip-path="url(#cp1)" filter="url(#f0)">
		<g>
			<path class="s0" d="m108.53 75.69l-17.72 19q-0.58 0.62-1.36 0.97-0.79 0.34-1.64 0.34h-84q-0.61 0-1.13-0.34-0.51-0.34-0.76-0.9-0.24-0.56-0.14-1.16 0.11-0.61 0.52-1.06l17.7-19q0.58-0.62 1.36-0.97 0.79-0.34 1.64-0.34h84q0.62-0.01 1.14 0.32 0.52 0.34 0.78 0.9 0.24 0.57 0.14 1.18-0.11 0.61-0.53 1.06zm-17.72-38.27q-0.58-0.62-1.37-0.96-0.78-0.34-1.63-0.35h-84q-0.61 0-1.13 0.34-0.51 0.34-0.76 0.9-0.24 0.56-0.14 1.16 0.11 0.61 0.52 1.06l17.7 19.01q0.58 0.62 1.36 0.96 0.79 0.34 1.64 0.35h84q0.61-0.01 1.12-0.34 0.51-0.34 0.76-0.9 0.24-0.56 0.14-1.17-0.11-0.6-0.52-1.05zm-87-13.65h84q0.85 0 1.64-0.34 0.78-0.35 1.36-0.97l17.72-19q0.42-0.45 0.53-1.06 0.1-0.61-0.14-1.18-0.26-0.56-0.78-0.9-0.52-0.33-1.14-0.32h-84q-0.85 0-1.64 0.34-0.78 0.35-1.36 0.97l-17.7 19q-0.41 0.45-0.52 1.06-0.1 0.6 0.14 1.16 0.25 0.56 0.76 0.9 0.52 0.34 1.13 0.34z"/>
			<path class="s1" d="m210.94 40.6h-44.94v-14.8h56.62v-14.8h-56.77c-1.94-0.01-3.86 0.36-5.66 1.09-1.79 0.74-3.43 1.82-4.81 3.18-1.38 1.36-2.47 2.99-3.22 4.77-0.76 1.79-1.15 3.71-1.16 5.65v15c0.01 1.94 0.4 3.86 1.15 5.65 0.75 1.79 1.85 3.42 3.23 4.78 1.38 1.37 3.01 2.45 4.81 3.18 1.79 0.74 3.72 1.11 5.66 1.1h45v14.8h-58.78v14.8h58.87c1.94 0.01 3.86-0.36 5.66-1.09 1.79-0.74 3.43-1.82 4.81-3.18 1.38-1.36 2.47-2.99 3.23-4.77 0.75-1.79 1.14-3.71 1.15-5.65v-15c-0.01-1.94-0.4-3.86-1.15-5.65-0.75-1.79-1.85-3.42-3.22-4.78-1.38-1.37-3.02-2.45-4.82-3.18-1.79-0.74-3.72-1.11-5.66-1.1z"/>
			<path class="s1" d="m298 11h-45.11c-1.94-0.02-3.87 0.35-5.67 1.08-1.8 0.73-3.44 1.81-4.82 3.18-1.39 1.36-2.49 2.98-3.24 4.77-0.76 1.8-1.15 3.72-1.16 5.66v44.62c0.01 1.94 0.4 3.86 1.16 5.66 0.75 1.79 1.85 3.41 3.24 4.77 1.38 1.37 3.02 2.45 4.82 3.18 1.8 0.73 3.73 1.1 5.67 1.08h45.11c1.94 0.01 3.86-0.36 5.66-1.09 1.79-0.74 3.43-1.82 4.81-3.18 1.38-1.36 2.47-2.99 3.22-4.77 0.76-1.79 1.15-3.71 1.16-5.65v-44.62c-0.01-1.94-0.4-3.86-1.16-5.65-0.75-1.78-1.84-3.41-3.22-4.77-1.38-1.36-3.02-2.44-4.81-3.18-1.8-0.73-3.72-1.1-5.66-1.09zm-0.11 59.2h-44.89v-44.4h44.87z"/>
			<path class="s1" d="m456 11h-44c-1.94-0.01-3.86 0.36-5.66 1.09-1.79 0.74-3.43 1.82-4.81 3.18-1.38 1.36-2.47 2.99-3.22 4.77-0.76 1.79-1.15 3.71-1.16 5.65v59.31h15v-24.31h43.8v24.31h15v-59.31c-0.01-1.95-0.41-3.87-1.16-5.67-0.76-1.79-1.87-3.42-3.26-4.79-1.39-1.36-3.03-2.44-4.84-3.17-1.81-0.72-3.74-1.08-5.69-1.06zm-0.11 34.89h-43.8v-20.09h43.8z"/>
			<path class="s1" d="m631.15 11h-44c-1.94-0.01-3.86 0.36-5.66 1.09-1.79 0.74-3.43 1.82-4.81 3.18-1.38 1.36-2.47 2.99-3.22 4.77-0.76 1.79-1.15 3.71-1.16 5.65v59.31h15v-24.31h43.7v24.31h15v-59.31c-0.01-1.94-0.4-3.86-1.15-5.65-0.76-1.78-1.85-3.41-3.23-4.77-1.38-1.36-3.02-2.44-4.81-3.18-1.8-0.73-3.72-1.1-5.66-1.09zm-0.15 34.89h-43.8v-20.09h43.8z"/>
			<path class="s1" d="m544 70.2h-6l-21.45-53c-0.73-1.83-2-3.4-3.63-4.5-1.63-1.1-3.56-1.7-5.53-1.7h-13.31c-1.29-0.01-2.58 0.24-3.77 0.73-1.2 0.49-2.29 1.21-3.21 2.12-0.92 0.91-1.65 1.99-2.15 3.18-0.5 1.2-0.76 2.48-0.77 3.77v64.2h15v-59.2h6l21.44 53c0.75 1.83 2.02 3.39 3.66 4.48 1.64 1.1 3.57 1.68 5.54 1.68h13.31c1.29 0.01 2.58-0.24 3.77-0.73 1.2-0.49 2.29-1.21 3.21-2.12 0.92-0.91 1.65-1.99 2.15-3.18 0.5-1.2 0.76-2.48 0.77-3.77v-64.16h-15.03z"/>
			<path class="s1" d="m341.1 11h-15v59.31c0.01 1.94 0.4 3.87 1.16 5.66 0.75 1.79 1.86 3.41 3.24 4.78 1.38 1.36 3.02 2.44 4.83 3.17 1.8 0.73 3.73 1.1 5.67 1.08h45v-14.8h-44.9z"/>
		</g>
	</g>
</svg>